<svg width="13" height="13" viewBox="0 0 13 13" fill="none" xmlns="http://www.w3.org/2000/svg">
<path d="M2.32323 2.64304C2.32164 2.63782 2.32154 2.63541 2.32153 2.63471C2.32153 2.63422 2.32152 2.63165 2.32323 2.62605C2.32512 2.61986 2.32977 2.60763 2.34102 2.58931C2.3646 2.5509 2.41269 2.49314 2.50278 2.42215C2.68621 2.27759 2.98607 2.1231 3.40613 1.98308C4.24044 1.70498 5.42836 1.52344 6.76598 1.52344C8.1036 1.52344 9.29152 1.70498 10.1258 1.98308C10.5459 2.1231 10.8457 2.27759 11.0292 2.42215C11.1193 2.49314 11.1674 2.5509 11.1909 2.58931C11.2022 2.60763 11.2068 2.61986 11.2087 2.62605C11.2104 2.63165 11.2104 2.63402 11.2104 2.63455C11.2104 2.6352 11.2103 2.63772 11.2087 2.64304C11.2068 2.64924 11.2022 2.66147 11.1909 2.67979C11.1674 2.7182 11.1193 2.77595 11.0292 2.84695C10.8457 2.99151 10.5459 3.14599 10.1258 3.28601C9.29152 3.56412 8.1036 3.74566 6.76598 3.74566C5.42836 3.74566 4.24044 3.56412 3.40613 3.28601C2.98607 3.14599 2.68621 2.99151 2.50278 2.84695C2.41269 2.77595 2.3646 2.7182 2.34102 2.67979C2.32977 2.66147 2.32512 2.64924 2.32323 2.64304Z" fill="#808593"/>
<path d="M11.2104 4.49225C11.2104 4.28466 10.9894 4.14779 10.7964 4.22418C10.6931 4.26506 10.5865 4.30368 10.4772 4.34011C9.50186 4.66522 8.18979 4.85677 6.76598 4.85677C5.34217 4.85677 4.0301 4.66522 3.05476 4.34011C2.94547 4.30368 2.83885 4.26506 2.73554 4.22418C2.54251 4.14779 2.32153 4.28466 2.32153 4.49225V6.52344C2.32153 6.52449 2.32158 6.52734 2.32342 6.53345C2.32539 6.53997 2.33011 6.55238 2.3413 6.57073C2.36471 6.60915 2.41236 6.66675 2.50164 6.73749C2.68353 6.88163 2.98146 7.03583 3.40024 7.17564C4.23204 7.45333 5.41974 7.63455 6.76598 7.63455C8.11222 7.63455 9.29992 7.45333 10.1317 7.17564C10.5505 7.03583 10.8484 6.88163 11.0303 6.73749C11.1196 6.66675 11.1672 6.60915 11.1907 6.57073C11.2018 6.55238 11.2066 6.53997 11.2085 6.53345C11.2104 6.52734 11.2104 6.52449 11.2104 6.52344V4.49225Z" fill="#808593"/>
<path d="M2.32153 10.4123V8.3841C2.32153 8.17649 2.54255 8.03961 2.73562 8.11595C2.83689 8.15599 2.94135 8.19384 3.04839 8.22957C4.02214 8.55465 5.33444 8.74566 6.76598 8.74566C8.19751 8.74566 9.50982 8.55465 10.4836 8.22957C10.5906 8.19384 10.6951 8.15599 10.7963 8.11595C10.9894 8.03961 11.2104 8.17649 11.2104 8.3841V10.4123C11.2104 10.4134 11.2104 10.4162 11.2085 10.4223C11.2066 10.4289 11.2018 10.4413 11.1907 10.4596C11.1672 10.498 11.1196 10.5556 11.0303 10.6264C10.8484 10.7705 10.5505 10.9247 10.1317 11.0645C9.29992 11.3422 8.11222 11.5234 6.76598 11.5234C5.41974 11.5234 4.23204 11.3422 3.40024 11.0645C2.98146 10.9247 2.68353 10.7705 2.50164 10.6264C2.41236 10.5556 2.36471 10.498 2.3413 10.4596C2.33011 10.4413 2.32539 10.4289 2.32342 10.4223C2.32158 10.4162 2.32153 10.4134 2.32153 10.4123Z" fill="#808593"/>
</svg>
