<svg width="13" height="13" viewBox="0 0 13 13" fill="none" xmlns="http://www.w3.org/2000/svg">
<g clip-path="url(#clip0_1_34603)">
<g clip-path="url(#clip1_1_34603)">
<path d="M4.07153 7.30915H1.71439C1.49742 7.30915 1.32153 7.48504 1.32153 7.70201V11.6306C1.32153 11.8475 1.49742 12.0234 1.71439 12.0234H4.07153C4.2885 12.0234 4.46439 11.8475 4.46439 11.6306V7.70201C4.46439 7.48504 4.2885 7.30915 4.07153 7.30915Z" fill="#A1A1A1"/>
<path d="M11.9287 4.16629H9.57153C9.35456 4.16629 9.17868 4.34218 9.17868 4.55915V11.6306C9.17868 11.8475 9.35456 12.0234 9.57153 12.0234H11.9287C12.1456 12.0234 12.3215 11.8475 12.3215 11.6306V4.55915C12.3215 4.34218 12.1456 4.16629 11.9287 4.16629Z" fill="#A1A1A1"/>
<path d="M8.0001 1.02344H5.64296C5.42599 1.02344 5.2501 1.19933 5.2501 1.41629V11.6306C5.2501 11.8475 5.42599 12.0234 5.64296 12.0234H8.0001C8.21707 12.0234 8.39296 11.8475 8.39296 11.6306V1.41629C8.39296 1.19933 8.21707 1.02344 8.0001 1.02344Z" fill="#A1A1A1"/>
</g>
</g>
<defs>
<clipPath id="clip0_1_34603">
<rect width="12" height="12" fill="white" transform="translate(0.821533 0.523438)"/>
</clipPath>
<clipPath id="clip1_1_34603">
<rect width="11" height="11" fill="white" transform="translate(1.32153 1.02344)"/>
</clipPath>
</defs>
</svg>
