<svg width="13" height="13" viewBox="0 0 13 13" fill="none" xmlns="http://www.w3.org/2000/svg">
<g clip-path="url(#clip0_1_34609)">
<path fill-rule="evenodd" clip-rule="evenodd" d="M10.4645 8.50373C10.4351 8.34153 10.455 8.17425 10.5215 8.02344C10.5849 7.87555 10.6902 7.74943 10.8243 7.66059C10.9584 7.57175 11.1156 7.52408 11.2765 7.52344H11.3215C11.5868 7.52344 11.8411 7.41808 12.0286 7.23054C12.2162 7.04301 12.3215 6.78865 12.3215 6.52344C12.3215 6.25822 12.2162 6.00387 12.0286 5.81633C11.8411 5.62879 11.5868 5.52344 11.3215 5.52344H11.2365C11.0756 5.5228 10.9184 5.47512 10.7843 5.38628C10.6502 5.29745 10.5449 5.17132 10.4815 5.02344V4.98344C10.415 4.83263 10.3951 4.66534 10.4245 4.50314C10.4539 4.34095 10.5313 4.19128 10.6465 4.07344L10.6765 4.04344C10.7695 3.95056 10.8433 3.84028 10.8936 3.71888C10.9439 3.59748 10.9698 3.46735 10.9698 3.33594C10.9698 3.20452 10.9439 3.0744 10.8936 2.953C10.8433 2.8316 10.7695 2.72131 10.6765 2.62844C10.5837 2.53546 10.4734 2.4617 10.352 2.41138C10.2306 2.36105 10.1004 2.33515 9.96903 2.33515C9.83762 2.33515 9.70749 2.36105 9.58609 2.41138C9.4647 2.4617 9.35441 2.53546 9.26153 2.62844L9.23153 2.65844C9.11369 2.77371 8.96403 2.85103 8.80183 2.88044C8.63963 2.90985 8.47234 2.89 8.32153 2.82344C8.17365 2.76006 8.04752 2.65482 7.95869 2.52067C7.86985 2.38653 7.82218 2.22933 7.82153 2.06844V2.02344C7.82153 1.75822 7.71618 1.50387 7.52864 1.31633C7.3411 1.12879 7.08675 1.02344 6.82153 1.02344C6.55632 1.02344 6.30196 1.12879 6.11443 1.31633C5.92689 1.50387 5.82153 1.75822 5.82153 2.02344V2.10844C5.82089 2.26933 5.77322 2.42653 5.68438 2.56067C5.59554 2.69482 5.46942 2.80006 5.32153 2.86344H5.28153C5.13073 2.93 4.96344 2.94985 4.80124 2.92044C4.63904 2.89103 4.48937 2.81371 4.37153 2.69844L4.34153 2.66844C4.24866 2.57546 4.13837 2.5017 4.01697 2.45138C3.89558 2.40105 3.76545 2.37515 3.63403 2.37515C3.50262 2.37515 3.37249 2.40105 3.25109 2.45138C3.12969 2.5017 3.01941 2.57546 2.92653 2.66844C2.83356 2.76131 2.7598 2.8716 2.70947 2.993C2.65915 3.1144 2.63325 3.24452 2.63325 3.37594C2.63325 3.50735 2.65915 3.63748 2.70947 3.75888C2.7598 3.88028 2.83356 3.99056 2.92653 4.08344L2.95653 4.11344C3.0718 4.23128 3.14913 4.38095 3.17854 4.54314C3.20794 4.70534 3.18809 4.87263 3.12153 5.02344C3.06439 5.17881 2.96183 5.31339 2.82718 5.40969C2.69254 5.506 2.53203 5.55957 2.36653 5.56344H2.32153C2.05632 5.56344 1.80196 5.66879 1.61443 5.85633C1.42689 6.04387 1.32153 6.29822 1.32153 6.56344C1.32153 6.82865 1.42689 7.08301 1.61443 7.27054C1.80196 7.45808 2.05632 7.56344 2.32153 7.56344H2.40653C2.56743 7.56408 2.72462 7.61175 2.85877 7.70059C2.99291 7.78943 3.09815 7.91555 3.16153 8.06344C3.22809 8.21425 3.24794 8.38153 3.21854 8.54373C3.18913 8.70593 3.1118 8.8556 2.99653 8.97344L2.96653 9.00344C2.87356 9.09631 2.7998 9.2066 2.74947 9.328C2.69915 9.4494 2.67325 9.57952 2.67325 9.71094C2.67325 9.84235 2.69915 9.97248 2.74947 10.0939C2.7998 10.2153 2.87356 10.3256 2.96653 10.4184C3.05941 10.5114 3.1697 10.5852 3.29109 10.6355C3.41249 10.6858 3.54262 10.7117 3.67403 10.7117C3.80545 10.7117 3.93558 10.6858 4.05697 10.6355C4.17837 10.5852 4.28866 10.5114 4.38153 10.4184L4.41153 10.3884C4.52937 10.2732 4.67904 10.1958 4.84124 10.1664C5.00344 10.137 5.17073 10.1569 5.32153 10.2234C5.4769 10.2806 5.61148 10.3831 5.70779 10.5178C5.80409 10.6524 5.85766 10.8129 5.86153 10.9784V11.0234C5.86153 11.2887 5.96689 11.543 6.15443 11.7305C6.34196 11.9181 6.59632 12.0234 6.86153 12.0234C7.12675 12.0234 7.3811 11.9181 7.56864 11.7305C7.75618 11.543 7.86153 11.2887 7.86153 11.0234V10.9384C7.86218 10.7775 7.90985 10.6204 7.99869 10.4862C8.08752 10.3521 8.21365 10.2468 8.36153 10.1834C8.51234 10.1169 8.67963 10.097 8.84183 10.1264C9.00403 10.1558 9.15369 10.2332 9.27153 10.3484L9.30153 10.3784C9.39441 10.4714 9.5047 10.5452 9.62609 10.5955C9.74749 10.6458 9.87762 10.6717 10.009 10.6717C10.1404 10.6717 10.2706 10.6458 10.392 10.5955C10.5134 10.5452 10.6237 10.4714 10.7165 10.3784C10.8095 10.2856 10.8833 10.1753 10.9336 10.0539C10.9839 9.93248 11.0098 9.80235 11.0098 9.67094C11.0098 9.53952 10.9839 9.4094 10.9336 9.288C10.8833 9.1666 10.8095 9.05631 10.7165 8.96344L10.6865 8.93344C10.5713 8.8156 10.4939 8.66593 10.4645 8.50373ZM8.65487 6.52344C8.65487 7.53596 7.83406 8.35677 6.82153 8.35677C5.80901 8.35677 4.9882 7.53596 4.9882 6.52344C4.9882 5.51092 5.80901 4.6901 6.82153 4.6901C7.83406 4.6901 8.65487 5.51092 8.65487 6.52344Z" fill="#A1A1A1"/>
</g>
<defs>
<clipPath id="clip0_1_34609">
<rect width="12" height="12" fill="white" transform="translate(0.821533 0.523438)"/>
</clipPath>
</defs>
</svg>
